<svg width="220" height="40" viewBox="0 0 220 40" fill="none" xmlns="http://www.w3.org/2000/svg">
<path d="M15.2979 34.7275V39H0.576172V34.7275L4.36035 33.9951V8.48242L0.576172 7.75V3.45312H28.8721V13.1943H23.4033L23.0859 8.94629H11.4893V18.7363H23.9404V24.2295H11.4893V33.9951L15.2979 34.7275ZM42.8613 39.5127C40.0781 39.5127 37.889 38.6338 36.2939 36.876C34.7152 35.1019 33.9258 32.3512 33.9258 28.624V17.6133L31.0205 16.8809V12.584H41.0547V28.6729C41.0547 30.5609 41.3802 31.9199 42.0312 32.75C42.6986 33.5638 43.6995 33.9707 45.0342 33.9707C47.1501 33.9707 48.7533 33.1732 49.8438 31.5781V17.6133L46.6943 16.8809V12.584H56.9727V33.9951L60.1465 34.7275V39H50.7227L50.2344 35.6553C49.4043 36.8923 48.3626 37.8444 47.1094 38.5117C45.8561 39.179 44.4401 39.5127 42.8613 39.5127ZM75.9668 34.7275V39H62.5391V34.7275L65.957 33.9951V17.6133L62.1729 16.8809V12.584H72.5977L72.915 16.3682C73.7939 15.0173 74.8763 13.9674 76.1621 13.2188C77.4642 12.4701 78.9453 12.0957 80.6055 12.0957C83.2259 12.0957 85.2767 12.9339 86.7578 14.6104C88.2389 16.2868 88.9795 18.9154 88.9795 22.4961V33.9951L92.3975 34.7275V39H78.7744V34.7275L81.8262 33.9951V22.5205C81.8262 20.7464 81.4762 19.4932 80.7764 18.7607C80.0765 18.012 79.0348 17.6377 77.6514 17.6377C75.6494 17.6377 74.1276 18.4678 73.0859 20.1279V33.9951L75.9668 34.7275ZM109.292 34.7275V39H94.5703V34.7275L98.3545 33.9951V8.48242L94.5703 7.75V3.45312H111.489C114.224 3.45312 116.567 3.92513 118.521 4.86914C120.49 5.81315 122.004 7.13965 123.062 8.84863C124.119 10.5576 124.648 12.5433 124.648 14.8057C124.648 17.068 124.119 19.0456 123.062 20.7383C122.004 22.4473 120.49 23.7738 118.521 24.7178C116.551 25.6455 114.207 26.1094 111.489 26.1094H105.483V33.9951L109.292 34.7275ZM111.489 8.94629H105.483V20.6162H111.489C113.475 20.6162 114.972 20.0791 115.981 19.0049C117.007 17.9144 117.52 16.5309 117.52 14.8545C117.52 13.1455 117.007 11.7376 115.981 10.6309C114.972 9.50781 113.475 8.94629 111.489 8.94629ZM138.32 39.5127C135.537 39.5127 133.348 38.6338 131.753 36.876C130.174 35.1019 129.385 32.3512 129.385 28.624V17.6133L126.479 16.8809V12.584H136.514V28.6729C136.514 30.5609 136.839 31.9199 137.49 32.75C138.158 33.5638 139.159 33.9707 140.493 33.9707C142.609 33.9707 144.212 33.1732 145.303 31.5781V17.6133L142.153 16.8809V12.584H152.432V33.9951L155.605 34.7275V39H146.182L145.693 35.6553C144.863 36.8923 143.822 37.8444 142.568 38.5117C141.315 39.179 139.899 39.5127 138.32 39.5127ZM171.426 34.7275V39H157.998V34.7275L161.416 33.9951V17.6133L157.632 16.8809V12.584H168.057L168.374 16.3682C169.253 15.0173 170.335 13.9674 171.621 13.2188C172.923 12.4701 174.404 12.0957 176.064 12.0957C178.685 12.0957 180.736 12.9339 182.217 14.6104C183.698 16.2868 184.438 18.9154 184.438 22.4961V33.9951L187.856 34.7275V39H174.233V34.7275L177.285 33.9951V22.5205C177.285 20.7464 176.935 19.4932 176.235 18.7607C175.535 18.012 174.494 17.6377 173.11 17.6377C171.108 17.6377 169.587 18.4678 168.545 20.1279V33.9951L171.426 34.7275ZM208.682 23.6436L216.567 33.9707L219.839 34.7275V39H206.631V34.9473L208.633 34.4834L208.584 34.3857L203.872 27.9648L200.356 31.0898V33.9951L203.433 34.7275V39H189.81V34.7275L193.252 33.9951V5.94336L189.443 5.21094V0.914062H200.356V23.9854L207.656 17.2959L207.705 17.2227L204.995 16.832V12.584H218.74V16.8809L215.322 17.7354L208.682 23.6436Z" fill="#080909"/>
</svg>
