<svg width="93" height="37" viewBox="0 0 93 37" fill="none" xmlns="http://www.w3.org/2000/svg">
<path d="M15.0918 31.7275V36H0.370117V31.7275L4.1543 30.9951V5.48242L0.370117 4.75V0.453125H28.666V10.1943H23.1973L22.8799 5.94629H11.2832V15.7363H23.7344V21.2295H11.2832V30.9951L15.0918 31.7275ZM42.6553 36.5127C39.8721 36.5127 37.6829 35.6338 36.0879 33.876C34.5091 32.1019 33.7197 29.3512 33.7197 25.624V14.6133L30.8145 13.8809V9.58398H40.8486V25.6729C40.8486 27.5609 41.1742 28.9199 41.8252 29.75C42.4925 30.5638 43.4935 30.9707 44.8281 30.9707C46.944 30.9707 48.5472 30.1732 49.6377 28.5781V14.6133L46.4883 13.8809V9.58398H56.7666V30.9951L59.9404 31.7275V36H50.5166L50.0283 32.6553C49.1982 33.8923 48.1566 34.8444 46.9033 35.5117C45.6501 36.179 44.234 36.5127 42.6553 36.5127ZM75.7607 31.7275V36H62.333V31.7275L65.751 30.9951V14.6133L61.9668 13.8809V9.58398H72.3916L72.709 13.3682C73.5879 12.0173 74.6702 10.9674 75.9561 10.2188C77.2581 9.47005 78.7393 9.0957 80.3994 9.0957C83.0199 9.0957 85.0706 9.93392 86.5518 11.6104C88.0329 13.2868 88.7734 15.9154 88.7734 19.4961V30.9951L92.1914 31.7275V36H78.5684V31.7275L81.6201 30.9951V19.5205C81.6201 17.7464 81.2702 16.4932 80.5703 15.7607C79.8704 15.012 78.8288 14.6377 77.4453 14.6377C75.4434 14.6377 73.9215 15.4678 72.8799 17.1279V30.9951L75.7607 31.7275Z" fill="#080909"/>
</svg>
